<?xml version="1.0" encoding="UTF-8" standalone="no"?>
<!-- Created with Inkscape (http://www.inkscape.org/) -->

<svg
   xmlns:dc="http://purl.org/dc/elements/1.1/"
   xmlns:cc="http://creativecommons.org/ns#"
   xmlns:rdf="http://www.w3.org/1999/02/22-rdf-syntax-ns#"
   xmlns:svg="http://www.w3.org/2000/svg"
   xmlns="http://www.w3.org/2000/svg"
   xmlns:sodipodi="http://sodipodi.sourceforge.net/DTD/sodipodi-0.dtd"
   xmlns:inkscape="http://www.inkscape.org/namespaces/inkscape"
   width="360"
   height="360"
   id="svg6237"
   version="1.1"
   inkscape:version="0.48.4 r9939"
   sodipodi:docname="bg-rotatescroll.svg"
   inkscape:export-filename="C:\dev\src\trollhouse-space\wedding-website\src\files\images\tinycircleslider\bg-rotatescroll.png"
   inkscape:export-xdpi="90"
   inkscape:export-ydpi="90">
  <defs
     id="defs6239" />
  <sodipodi:namedview
     id="base"
     pagecolor="#ffffff"
     bordercolor="#666666"
     borderopacity="1.0"
     inkscape:pageopacity="0.0"
     inkscape:pageshadow="2"
     inkscape:zoom="0.98994949"
     inkscape:cx="-44.81104"
     inkscape:cy="151.62951"
     inkscape:document-units="px"
     inkscape:current-layer="layer1"
     showgrid="false"
     inkscape:window-width="1304"
     inkscape:window-height="746"
     inkscape:window-x="54"
     inkscape:window-y="-8"
     inkscape:window-maximized="1"
     showborder="false" />
  <metadata
     id="metadata6242">
    <rdf:RDF>
      <cc:Work
         rdf:about="">
        <dc:format>image/svg+xml</dc:format>
        <dc:type
           rdf:resource="http://purl.org/dc/dcmitype/StillImage" />
        <dc:title />
      </cc:Work>
    </rdf:RDF>
  </metadata>
  <g
     inkscape:label="Layer 1"
     inkscape:groupmode="layer"
     id="layer1"
     transform="translate(0,-692.36218)">
    <path
       style="fill:#e4e6e5;fill-opacity:1;stroke:none"
       d="m 0,692.36217 0,360.00003 360,0 0,-360.00003 -360,0 z m 180,10 c 93.8884,0 170,76.11159 170,170 0,93.88841 -76.1116,170.00003 -170,170.00003 -93.88841,0 -170,-76.11162 -170,-170.00003 0,-93.88841 76.11159,-170 170,-170 z"
       id="rect6245-8"
       inkscape:connector-curvature="0" />
    <path
       sodipodi:type="arc"
       style="fill:none;stroke:#edebe5;stroke-width:4.01387024000000010;stroke-miterlimit:4;stroke-opacity:1;stroke-dasharray:none"
       id="path6755"
       sodipodi:cx="-239.91122"
       sodipodi:cy="105.94663"
       sodipodi:rx="59.093925"
       sodipodi:ry="19.697975"
       d="m -180.8173,105.94663 c 0,10.87889 -26.45725,19.69798 -59.09392,19.69798 -32.63668,0 -59.09393,-8.81909 -59.09393,-19.69798 0,-10.878889 26.45725,-19.697973 59.09393,-19.697973 32.63667,0 59.09392,8.819084 59.09392,19.697973 z"
       transform="matrix(2.8767762,0,0,8.6303287,870.1709,-41.992079)" />
  </g>
</svg>
